<?xml version="1.0" encoding="utf-8"?>
<svg viewBox="27.757 230.363 460.671 172.923" xmlns="http://www.w3.org/2000/svg">
  <path id="path374710" style="font-style:normal;font-weight:500;font-size:32px;line-height:1;font-family:Roboto;font-variant-ligatures:none;text-align:center;text-anchor:middle" d="M 105.297 398.411 L 102.332 398.411 L 94.727 386.306 L 94.727 398.411 L 91.762 398.411 L 91.762 381.349 L 94.727 381.349 L 102.356 393.501 L 102.356 381.349 L 105.297 381.349 L 105.297 398.411 Z" stroke-width="0" stroke-linejoin="miter" stroke-miterlimit="2" fill="#6d6060" stroke="#6d6060" transform="matrix(1, 0, 0, 0.9999999999999999, 7.105427357601002e-15, -7.105427357601002e-15)"/>
  <path id="path374712" style="font-style:normal;font-weight:500;font-size:32px;line-height:1;font-family:Roboto;font-variant-ligatures:none;text-align:center;text-anchor:middle" d="M 112.704 398.411 L 109.75 398.411 L 109.75 381.349 L 112.704 381.349 L 112.704 398.411 Z" stroke-width="0" stroke-linejoin="miter" stroke-miterlimit="2" fill="#6d6060" stroke="#6d6060" transform="matrix(1, 0, 0, 0.9999999999999999, 7.105427357601002e-15, -7.105427357601002e-15)"/>
  <path id="path374714" style="font-style:normal;font-weight:500;font-size:32px;line-height:1;font-family:Roboto;font-variant-ligatures:none;text-align:center;text-anchor:middle" d="M 129.122 383.739 L 123.801 383.739 L 123.801 398.411 L 120.86 398.411 L 120.86 383.739 L 115.586 383.739 L 115.586 381.349 L 129.122 381.349 L 129.122 383.739 Z" stroke-width="0" stroke-linejoin="miter" stroke-miterlimit="2" fill="#6d6060" stroke="#6d6060" transform="matrix(1, 0, 0, 0.9999999999999999, 7.105427357601002e-15, -7.105427357601002e-15)"/>
  <path id="path374716" style="font-style:normal;font-weight:500;font-size:32px;line-height:1;font-family:Roboto;font-variant-ligatures:none;text-align:center;text-anchor:middle" d="M 142.317 391.04 L 140.383 393.091 L 140.383 398.411 L 137.418 398.411 L 137.418 381.349 L 140.383 381.349 L 140.383 389.353 L 142.024 387.325 L 147.016 381.349 L 150.602 381.349 L 144.262 388.907 L 150.965 398.411 L 147.45 398.411 L 142.317 391.04 Z" stroke-width="0" stroke-linejoin="miter" stroke-miterlimit="2" fill="#6d6060" stroke="#6d6060" transform="matrix(1, 0, 0, 0.9999999999999999, 7.105427357601002e-15, -7.105427357601002e-15)"/>
  <path id="path374718" style="font-style:normal;font-weight:500;font-size:32px;line-height:1;font-family:Roboto;font-variant-ligatures:none;text-align:center;text-anchor:middle" d="M 158.207 391.04 L 156.274 393.091 L 156.274 398.411 L 153.309 398.411 L 153.309 381.349 L 156.274 381.349 L 156.274 389.353 L 157.914 387.325 L 162.907 381.349 L 166.493 381.349 L 160.153 388.907 L 166.856 398.411 L 163.34 398.411 L 158.207 391.04 Z" stroke-width="0" stroke-linejoin="miter" stroke-miterlimit="2" fill="#6d6060" stroke="#6d6060" transform="matrix(1, 0, 0, 0.9999999999999999, 7.105427357601002e-15, -7.105427357601002e-15)"/>
  <path id="path374720" style="font-style:normal;font-weight:500;font-size:32px;line-height:1;font-family:Roboto;font-variant-ligatures:none;text-align:center;text-anchor:middle" d="M 175.469 391.837 L 172.164 391.837 L 172.164 398.411 L 169.2 398.411 L 169.2 381.349 L 175.2 381.349 C 177.168 381.349 178.688 381.79 179.758 382.673 C 180.829 383.556 181.364 384.833 181.364 386.505 C 181.364 387.646 181.086 388.603 180.532 389.376 C 179.985 390.142 179.219 390.731 178.235 391.146 L 182.067 398.259 L 182.067 398.411 L 178.891 398.411 L 175.469 391.837 Z M 172.164 389.458 L 175.211 389.458 C 176.211 389.458 176.993 389.208 177.555 388.708 C 178.118 388.2 178.399 387.509 178.399 386.634 C 178.399 385.72 178.137 385.013 177.614 384.513 C 177.098 384.013 176.325 383.755 175.293 383.739 L 172.164 383.739 L 172.164 389.458 Z" stroke-width="0" stroke-linejoin="miter" stroke-miterlimit="2" fill="#6d6060" stroke="#6d6060" transform="matrix(1, 0, 0, 0.9999999999999999, 7.105427357601002e-15, -7.105427357601002e-15)"/>
  <path id="path374722" style="font-style:normal;font-weight:500;font-size:32px;line-height:1;font-family:Roboto;font-variant-ligatures:none;text-align:center;text-anchor:middle" d="M 199.868 394.017 C 199.868 393.267 199.602 392.689 199.071 392.282 C 198.547 391.876 197.598 391.466 196.223 391.052 C 194.848 390.638 193.754 390.177 192.942 389.669 C 191.387 388.692 190.61 387.419 190.61 385.849 C 190.61 384.474 191.168 383.341 192.286 382.45 C 193.411 381.56 194.868 381.114 196.657 381.114 C 197.844 381.114 198.903 381.333 199.832 381.771 C 200.762 382.208 201.493 382.833 202.024 383.646 C 202.555 384.45 202.821 385.345 202.821 386.329 L 199.868 386.329 C 199.868 385.439 199.586 384.743 199.024 384.243 C 198.469 383.735 197.672 383.481 196.633 383.481 C 195.664 383.481 194.911 383.689 194.372 384.103 C 193.84 384.517 193.575 385.095 193.575 385.837 C 193.575 386.462 193.864 386.985 194.442 387.407 C 195.02 387.821 195.973 388.228 197.301 388.626 C 198.629 389.017 199.696 389.466 200.5 389.974 C 201.305 390.474 201.895 391.052 202.27 391.708 C 202.645 392.356 202.832 393.118 202.832 393.993 C 202.832 395.415 202.286 396.548 201.192 397.392 C 200.106 398.228 198.629 398.646 196.762 398.646 C 195.528 398.646 194.391 398.419 193.352 397.966 C 192.321 397.505 191.516 396.872 190.938 396.067 C 190.368 395.263 190.082 394.325 190.082 393.255 L 193.047 393.255 C 193.047 394.224 193.368 394.974 194.008 395.505 C 194.649 396.036 195.567 396.302 196.762 396.302 C 197.793 396.302 198.567 396.095 199.082 395.681 C 199.606 395.259 199.868 394.704 199.868 394.017 Z" stroke-width="0" stroke-linejoin="miter" stroke-miterlimit="2" fill="#6d6060" stroke="#6d6060" transform="matrix(1, 0, 0, 0.9999999999999999, 7.105427357601002e-15, -7.105427357601002e-15)"/>
  <path id="path374724" style="font-style:normal;font-weight:500;font-size:32px;line-height:1;font-family:Roboto;font-variant-ligatures:none;text-align:center;text-anchor:middle" d="M 209.477 382.649 L 209.477 385.731 L 211.715 385.731 L 211.715 387.841 L 209.477 387.841 L 209.477 394.919 C 209.477 395.403 209.571 395.755 209.758 395.974 C 209.954 396.185 210.297 396.29 210.789 396.29 C 211.118 396.29 211.45 396.251 211.786 396.173 L 211.786 398.376 C 211.137 398.556 210.512 398.646 209.911 398.646 C 207.723 398.646 206.629 397.439 206.629 395.024 L 206.629 387.841 L 204.543 387.841 L 204.543 385.731 L 206.629 385.731 L 206.629 382.649 L 209.477 382.649 Z" stroke-width="0" stroke-linejoin="miter" stroke-miterlimit="2" fill="#6d6060" stroke="#6d6060" transform="matrix(1, 0, 0, 0.9999999999999999, 7.105427357601002e-15, -7.105427357601002e-15)"/>
  <path id="path374726" style="font-style:normal;font-weight:500;font-size:32px;line-height:1;font-family:Roboto;font-variant-ligatures:none;text-align:center;text-anchor:middle" d="M 222.309 397.169 C 221.473 398.153 220.286 398.646 218.747 398.646 C 217.372 398.646 216.329 398.243 215.618 397.439 C 214.914 396.634 214.563 395.47 214.563 393.946 L 214.563 385.731 L 217.411 385.731 L 217.411 393.911 C 217.411 395.521 218.079 396.325 219.414 396.325 C 220.797 396.325 221.731 395.829 222.215 394.837 L 222.215 385.731 L 225.063 385.731 L 225.063 398.411 L 222.379 398.411 L 222.309 397.169 Z" stroke-width="0" stroke-linejoin="miter" stroke-miterlimit="2" fill="#6d6060" stroke="#6d6060" transform="matrix(1, 0, 0, 0.9999999999999999, 7.105427357601002e-15, -7.105427357601002e-15)"/>
  <path id="path374728" style="font-style:normal;font-weight:500;font-size:32px;line-height:1;font-family:Roboto;font-variant-ligatures:none;text-align:center;text-anchor:middle" d="M 228.204 391.978 C 228.204 390.024 228.657 388.458 229.563 387.278 C 230.469 386.091 231.684 385.497 233.207 385.497 C 234.551 385.497 235.637 385.966 236.465 386.903 L 236.465 380.411 L 239.313 380.411 L 239.313 398.411 L 236.735 398.411 L 236.594 397.099 C 235.743 398.13 234.606 398.646 233.184 398.646 C 231.7 398.646 230.497 398.048 229.575 396.853 C 228.661 395.657 228.204 394.032 228.204 391.978 Z M 231.051 392.224 C 231.051 393.513 231.297 394.521 231.79 395.247 C 232.29 395.966 232.997 396.325 233.911 396.325 C 235.075 396.325 235.926 395.806 236.465 394.767 L 236.465 389.353 C 235.942 388.337 235.098 387.829 233.934 387.829 C 233.012 387.829 232.301 388.196 231.801 388.931 C 231.301 389.657 231.051 390.755 231.051 392.224 Z" stroke-width="0" stroke-linejoin="miter" stroke-miterlimit="2" fill="#6d6060" stroke="#6d6060" transform="matrix(1, 0, 0, 0.9999999999999999, 7.105427357601002e-15, -7.105427357601002e-15)"/>
  <path id="path374730" style="font-style:normal;font-weight:500;font-size:32px;line-height:1;font-family:Roboto;font-variant-ligatures:none;text-align:center;text-anchor:middle" d="M 248.618 398.646 C 246.813 398.646 245.348 398.079 244.223 396.946 C 243.106 395.806 242.547 394.29 242.547 392.399 L 242.547 392.048 C 242.547 390.782 242.79 389.653 243.274 388.661 C 243.766 387.661 244.454 386.884 245.336 386.329 C 246.219 385.774 247.204 385.497 248.29 385.497 C 250.016 385.497 251.348 386.048 252.286 387.149 C 253.231 388.251 253.704 389.81 253.704 391.825 L 253.704 392.974 L 245.418 392.974 C 245.504 394.021 245.852 394.849 246.461 395.458 C 247.079 396.067 247.852 396.372 248.782 396.372 C 250.086 396.372 251.149 395.845 251.969 394.79 L 253.504 396.255 C 252.997 397.013 252.317 397.603 251.465 398.024 C 250.622 398.439 249.672 398.646 248.618 398.646 Z M 248.278 387.782 C 247.497 387.782 246.864 388.056 246.379 388.603 C 245.903 389.149 245.598 389.911 245.465 390.888 L 250.891 390.888 L 250.891 390.677 C 250.829 389.724 250.575 389.005 250.129 388.521 C 249.684 388.028 249.067 387.782 248.278 387.782 Z" stroke-width="0" stroke-linejoin="miter" stroke-miterlimit="2" fill="#6d6060" stroke="#6d6060" transform="matrix(1, 0, 0, 0.9999999999999999, 7.105427357601002e-15, -7.105427357601002e-15)"/>
  <path id="path374732" style="font-style:normal;font-weight:500;font-size:32px;line-height:1;font-family:Roboto;font-variant-ligatures:none;text-align:center;text-anchor:middle" d="M 259.317 385.731 L 259.399 387.196 C 260.336 386.064 261.567 385.497 263.09 385.497 C 265.731 385.497 267.075 387.009 267.121 390.032 L 267.121 398.411 L 264.274 398.411 L 264.274 390.196 C 264.274 389.392 264.098 388.798 263.746 388.415 C 263.403 388.024 262.836 387.829 262.047 387.829 C 260.899 387.829 260.043 388.349 259.481 389.388 L 259.481 398.411 L 256.633 398.411 L 256.633 385.731 L 259.317 385.731 Z" stroke-width="0" stroke-linejoin="miter" stroke-miterlimit="2" fill="#6d6060" stroke="#6d6060" transform="matrix(1, 0, 0, 0.9999999999999999, 7.105427357601002e-15, -7.105427357601002e-15)"/>
  <path id="path374734" style="font-style:normal;font-weight:500;font-size:32px;line-height:1;font-family:Roboto;font-variant-ligatures:none;text-align:center;text-anchor:middle" d="M 274.352 382.649 L 274.352 385.731 L 276.59 385.731 L 276.59 387.841 L 274.352 387.841 L 274.352 394.919 C 274.352 395.403 274.446 395.755 274.633 395.974 C 274.829 396.185 275.172 396.29 275.664 396.29 C 275.993 396.29 276.325 396.251 276.661 396.173 L 276.661 398.376 C 276.012 398.556 275.387 398.646 274.786 398.646 C 272.598 398.646 271.504 397.439 271.504 395.024 L 271.504 387.841 L 269.418 387.841 L 269.418 385.731 L 271.504 385.731 L 271.504 382.649 L 274.352 382.649 Z" stroke-width="0" stroke-linejoin="miter" stroke-miterlimit="2" fill="#6d6060" stroke="#6d6060" transform="matrix(1, 0, 0, 0.9999999999999999, 7.105427357601002e-15, -7.105427357601002e-15)"/>
  <path id="path374736" style="font-style:normal;font-weight:500;font-size:32px;line-height:1;font-family:Roboto;font-variant-ligatures:none;text-align:center;text-anchor:middle" d="M 289.622 381.349 L 294.543 394.427 L 299.454 381.349 L 303.286 381.349 L 303.286 398.411 L 300.332 398.411 L 300.332 392.786 L 300.625 385.263 L 295.586 398.411 L 293.465 398.411 L 288.438 385.274 L 288.731 392.786 L 288.731 398.411 L 285.778 398.411 L 285.778 381.349 L 289.622 381.349 Z" stroke-width="0" stroke-linejoin="miter" stroke-miterlimit="2" fill="#6d6060" stroke="#6d6060" transform="matrix(1, 0, 0, 0.9999999999999999, 7.105427357601002e-15, -7.105427357601002e-15)"/>
  <path id="path374738" style="font-style:normal;font-weight:500;font-size:32px;line-height:1;font-family:Roboto;font-variant-ligatures:none;text-align:center;text-anchor:middle" d="M 314.829 398.411 C 314.704 398.169 314.594 397.774 314.5 397.228 C 313.594 398.173 312.485 398.646 311.172 398.646 C 309.899 398.646 308.86 398.282 308.055 397.556 C 307.25 396.829 306.848 395.931 306.848 394.86 C 306.848 393.509 307.348 392.474 308.348 391.755 C 309.356 391.028 310.793 390.665 312.661 390.665 L 314.407 390.665 L 314.407 389.833 C 314.407 389.177 314.223 388.653 313.856 388.263 C 313.489 387.864 312.93 387.665 312.18 387.665 C 311.532 387.665 311 387.829 310.586 388.157 C 310.172 388.478 309.965 388.888 309.965 389.388 L 307.118 389.388 C 307.118 388.692 307.348 388.044 307.809 387.442 C 308.27 386.833 308.895 386.356 309.684 386.013 C 310.481 385.669 311.368 385.497 312.344 385.497 C 313.829 385.497 315.012 385.872 315.895 386.622 C 316.778 387.364 317.231 388.411 317.254 389.763 L 317.254 395.481 C 317.254 396.622 317.414 397.532 317.735 398.212 L 317.735 398.411 L 314.829 398.411 Z M 311.7 396.36 C 312.262 396.36 312.789 396.224 313.282 395.95 C 313.782 395.677 314.157 395.31 314.407 394.849 L 314.407 392.458 L 312.872 392.458 C 311.817 392.458 311.024 392.642 310.493 393.009 C 309.961 393.376 309.696 393.896 309.696 394.567 C 309.696 395.114 309.875 395.552 310.235 395.88 C 310.602 396.2 311.09 396.36 311.7 396.36 Z" stroke-width="0" stroke-linejoin="miter" stroke-miterlimit="2" fill="#6d6060" stroke="#6d6060" transform="matrix(1, 0, 0, 0.9999999999999999, 7.105427357601002e-15, -7.105427357601002e-15)"/>
  <path id="path374740" style="font-style:normal;font-weight:500;font-size:32px;line-height:1;font-family:Roboto;font-variant-ligatures:none;text-align:center;text-anchor:middle" d="M 327.625 388.333 C 327.25 388.271 326.864 388.239 326.465 388.239 C 325.161 388.239 324.282 388.739 323.829 389.739 L 323.829 398.411 L 320.981 398.411 L 320.981 385.731 L 323.7 385.731 L 323.77 387.149 C 324.457 386.048 325.411 385.497 326.629 385.497 C 327.036 385.497 327.371 385.552 327.637 385.661 L 327.625 388.333 Z" stroke-width="0" stroke-linejoin="miter" stroke-miterlimit="2" fill="#6d6060" stroke="#6d6060" transform="matrix(1, 0, 0, 0.9999999999999999, 7.105427357601002e-15, -7.105427357601002e-15)"/>
  <path id="path374742" style="font-style:normal;font-weight:500;font-size:32px;line-height:1;font-family:Roboto;font-variant-ligatures:none;text-align:center;text-anchor:middle" d="M 334.293 392.974 L 333.028 394.274 L 333.028 398.411 L 330.18 398.411 L 330.18 380.411 L 333.028 380.411 L 333.028 390.794 L 333.918 389.681 L 337.422 385.731 L 340.844 385.731 L 336.133 391.017 L 341.348 398.411 L 338.055 398.411 L 334.293 392.974 Z" stroke-width="0" stroke-linejoin="miter" stroke-miterlimit="2" fill="#6d6060" stroke="#6d6060" transform="matrix(1, 0, 0, 0.9999999999999999, 7.105427357601002e-15, -7.105427357601002e-15)"/>
  <path id="path374744" style="font-style:normal;font-weight:500;font-size:32px;line-height:1;font-family:Roboto;font-variant-ligatures:none;text-align:center;text-anchor:middle" d="M 348.789 398.646 C 346.985 398.646 345.52 398.079 344.395 396.946 C 343.278 395.806 342.719 394.29 342.719 392.399 L 342.719 392.048 C 342.719 390.782 342.961 389.653 343.446 388.661 C 343.938 387.661 344.625 386.884 345.508 386.329 C 346.391 385.774 347.375 385.497 348.461 385.497 C 350.188 385.497 351.52 386.048 352.457 387.149 C 353.403 388.251 353.875 389.81 353.875 391.825 L 353.875 392.974 L 345.59 392.974 C 345.676 394.021 346.024 394.849 346.633 395.458 C 347.25 396.067 348.024 396.372 348.954 396.372 C 350.258 396.372 351.321 395.845 352.141 394.79 L 353.676 396.255 C 353.168 397.013 352.489 397.603 351.637 398.024 C 350.793 398.439 349.844 398.646 348.789 398.646 Z M 348.45 387.782 C 347.668 387.782 347.036 388.056 346.551 388.603 C 346.075 389.149 345.77 389.911 345.637 390.888 L 351.063 390.888 L 351.063 390.677 C 351 389.724 350.747 389.005 350.301 388.521 C 349.856 388.028 349.239 387.782 348.45 387.782 Z" stroke-width="0" stroke-linejoin="miter" stroke-miterlimit="2" fill="#6d6060" stroke="#6d6060" transform="matrix(1, 0, 0, 0.9999999999999999, 7.105427357601002e-15, -7.105427357601002e-15)"/>
  <path id="path374746" style="font-style:normal;font-weight:500;font-size:32px;line-height:1;font-family:Roboto;font-variant-ligatures:none;text-align:center;text-anchor:middle" d="M 360.414 382.649 L 360.414 385.731 L 362.653 385.731 L 362.653 387.841 L 360.414 387.841 L 360.414 394.919 C 360.414 395.403 360.508 395.755 360.696 395.974 C 360.891 396.185 361.235 396.29 361.727 396.29 C 362.055 396.29 362.387 396.251 362.723 396.173 L 362.723 398.376 C 362.075 398.556 361.45 398.646 360.848 398.646 C 358.661 398.646 357.567 397.439 357.567 395.024 L 357.567 387.841 L 355.481 387.841 L 355.481 385.731 L 357.567 385.731 L 357.567 382.649 L 360.414 382.649 Z" stroke-width="0" stroke-linejoin="miter" stroke-miterlimit="2" fill="#6d6060" stroke="#6d6060" transform="matrix(1, 0, 0, 0.9999999999999999, 7.105427357601002e-15, -7.105427357601002e-15)"/>
  <path id="path374748" style="font-style:normal;font-weight:500;font-size:32px;line-height:1;font-family:Roboto;font-variant-ligatures:none;text-align:center;text-anchor:middle" d="M 376.668 392.2 C 376.668 394.161 376.223 395.728 375.332 396.899 C 374.442 398.064 373.247 398.646 371.747 398.646 C 370.356 398.646 369.243 398.189 368.407 397.274 L 368.407 403.286 L 365.559 403.286 L 365.559 385.731 L 368.184 385.731 L 368.301 387.021 C 369.137 386.005 370.274 385.497 371.711 385.497 C 373.258 385.497 374.469 386.075 375.344 387.231 C 376.227 388.38 376.668 389.978 376.668 392.024 L 376.668 392.2 Z M 373.832 391.954 C 373.832 390.689 373.579 389.685 373.071 388.942 C 372.571 388.2 371.852 387.829 370.914 387.829 C 369.75 387.829 368.914 388.31 368.407 389.271 L 368.407 394.896 C 368.922 395.88 369.766 396.372 370.938 396.372 C 371.844 396.372 372.551 396.009 373.059 395.282 C 373.575 394.548 373.832 393.439 373.832 391.954 Z" stroke-width="0" stroke-linejoin="miter" stroke-miterlimit="2" fill="#6d6060" stroke="#6d6060" transform="matrix(1, 0, 0, 0.9999999999999999, 7.105427357601002e-15, -7.105427357601002e-15)"/>
  <path id="path374750" style="font-style:normal;font-weight:500;font-size:32px;line-height:1;font-family:Roboto;font-variant-ligatures:none;text-align:center;text-anchor:middle" d="M 382.844 398.411 L 379.997 398.411 L 379.997 380.411 L 382.844 380.411 L 382.844 398.411 Z" stroke-width="0" stroke-linejoin="miter" stroke-miterlimit="2" fill="#6d6060" stroke="#6d6060" transform="matrix(1, 0, 0, 0.9999999999999999, 7.105427357601002e-15, -7.105427357601002e-15)"/>
  <path id="path374752" style="font-style:normal;font-weight:500;font-size:32px;line-height:1;font-family:Roboto;font-variant-ligatures:none;text-align:center;text-anchor:middle" d="M 394.282 398.411 C 394.157 398.169 394.047 397.774 393.954 397.228 C 393.047 398.173 391.938 398.646 390.625 398.646 C 389.352 398.646 388.313 398.282 387.508 397.556 C 386.704 396.829 386.301 395.931 386.301 394.86 C 386.301 393.509 386.801 392.474 387.801 391.755 C 388.809 391.028 390.247 390.665 392.114 390.665 L 393.86 390.665 L 393.86 389.833 C 393.86 389.177 393.676 388.653 393.309 388.263 C 392.942 387.864 392.383 387.665 391.633 387.665 C 390.985 387.665 390.454 387.829 390.039 388.157 C 389.625 388.478 389.418 388.888 389.418 389.388 L 386.571 389.388 C 386.571 388.692 386.801 388.044 387.262 387.442 C 387.723 386.833 388.348 386.356 389.137 386.013 C 389.934 385.669 390.821 385.497 391.797 385.497 C 393.282 385.497 394.465 385.872 395.348 386.622 C 396.231 387.364 396.684 388.411 396.707 389.763 L 396.707 395.481 C 396.707 396.622 396.868 397.532 397.188 398.212 L 397.188 398.411 L 394.282 398.411 Z M 391.153 396.36 C 391.715 396.36 392.243 396.224 392.735 395.95 C 393.235 395.677 393.61 395.31 393.86 394.849 L 393.86 392.458 L 392.325 392.458 C 391.27 392.458 390.477 392.642 389.946 393.009 C 389.414 393.376 389.149 393.896 389.149 394.567 C 389.149 395.114 389.329 395.552 389.688 395.88 C 390.055 396.2 390.543 396.36 391.153 396.36 Z" stroke-width="0" stroke-linejoin="miter" stroke-miterlimit="2" fill="#6d6060" stroke="#6d6060" transform="matrix(1, 0, 0, 0.9999999999999999, 7.105427357601002e-15, -7.105427357601002e-15)"/>
  <path id="path374754" style="font-style:normal;font-weight:500;font-size:32px;line-height:1;font-family:Roboto;font-variant-ligatures:none;text-align:center;text-anchor:middle" d="M 405.649 396.372 C 406.36 396.372 406.95 396.165 407.418 395.751 C 407.887 395.337 408.137 394.825 408.168 394.216 L 410.852 394.216 C 410.821 395.005 410.575 395.743 410.114 396.431 C 409.653 397.11 409.028 397.649 408.239 398.048 C 407.45 398.446 406.598 398.646 405.684 398.646 C 403.911 398.646 402.504 398.071 401.465 396.923 C 400.426 395.774 399.907 394.189 399.907 392.165 L 399.907 391.872 C 399.907 389.942 400.422 388.399 401.454 387.243 C 402.485 386.079 403.891 385.497 405.672 385.497 C 407.18 385.497 408.407 385.939 409.352 386.821 C 410.305 387.696 410.805 388.849 410.852 390.278 L 408.168 390.278 C 408.137 389.552 407.887 388.954 407.418 388.485 C 406.957 388.017 406.368 387.782 405.649 387.782 C 404.727 387.782 404.016 388.118 403.516 388.79 C 403.016 389.454 402.762 390.466 402.754 391.825 L 402.754 392.282 C 402.754 393.657 403 394.685 403.493 395.364 C 403.993 396.036 404.711 396.372 405.649 396.372 Z" stroke-width="0" stroke-linejoin="miter" stroke-miterlimit="2" fill="#6d6060" stroke="#6d6060" transform="matrix(1, 0, 0, 0.9999999999999999, 7.105427357601002e-15, -7.105427357601002e-15)"/>
  <path id="path374756" style="font-style:normal;font-weight:500;font-size:32px;line-height:1;font-family:Roboto;font-variant-ligatures:none;text-align:center;text-anchor:middle" d="M 419.336 398.646 C 417.532 398.646 416.067 398.079 414.942 396.946 C 413.825 395.806 413.266 394.29 413.266 392.399 L 413.266 392.048 C 413.266 390.782 413.508 389.653 413.993 388.661 C 414.485 387.661 415.172 386.884 416.055 386.329 C 416.938 385.774 417.922 385.497 419.008 385.497 C 420.735 385.497 422.067 386.048 423.004 387.149 C 423.95 388.251 424.422 389.81 424.422 391.825 L 424.422 392.974 L 416.137 392.974 C 416.223 394.021 416.571 394.849 417.18 395.458 C 417.797 396.067 418.571 396.372 419.5 396.372 C 420.805 396.372 421.868 395.845 422.688 394.79 L 424.223 396.255 C 423.715 397.013 423.036 397.603 422.184 398.024 C 421.34 398.439 420.391 398.646 419.336 398.646 Z M 418.997 387.782 C 418.215 387.782 417.582 388.056 417.098 388.603 C 416.622 389.149 416.317 389.911 416.184 390.888 L 421.61 390.888 L 421.61 390.677 C 421.547 389.724 421.293 389.005 420.848 388.521 C 420.403 388.028 419.786 387.782 418.997 387.782 Z" stroke-width="0" stroke-linejoin="miter" stroke-miterlimit="2" fill="#6d6060" stroke="#6d6060" transform="matrix(1, 0, 0, 0.9999999999999999, 7.105427357601002e-15, -7.105427357601002e-15)"/>
  <path id="path374759" style="font-style:normal;font-weight:normal;font-size:72px;line-height:1;font-family:Stanley;font-variant-ligatures:none;text-align:center;text-anchor:middle" d="M 27.757 360.611 L 59.509 360.611 L 59.509 230.363 L 27.757 255.635 L 27.757 360.611 Z M 96.013 230.363 C 90.829 230.363 85.645 232.307 81.541 235.547 L 65.341 248.075 L 87.805 247.859 L 87.805 360.611 L 119.773 360.611 L 119.773 254.123 C 119.773 240.947 109.189 230.363 96.013 230.363 L 96.013 230.363 Z" stroke-width="0" stroke-linejoin="miter" stroke-miterlimit="2" fill="#6d6060" stroke="#6d6060" transform="matrix(1, 0, 0, 0.9999999999999999, 7.105427357601002e-15, -7.105427357601002e-15)"/>
  <path id="path374761" style="font-style:normal;font-weight:normal;font-size:72px;line-height:1;font-family:Stanley;font-variant-ligatures:none;text-align:center;text-anchor:middle" d="M 138.423 255.635 L 138.423 360.395 L 170.175 360.395 L 170.175 230.579 L 138.423 255.635 Z M 195.015 256.931 L 195.015 287.603 L 231.951 256.931 L 195.015 256.931 Z M 195.015 297.323 L 170.175 317.843 L 196.743 360.395 L 234.543 360.395 L 195.015 297.323 Z" stroke-width="0" stroke-linejoin="miter" stroke-miterlimit="2" fill="#6d6060" stroke="#6d6060" transform="matrix(1, 0, 0, 0.9999999999999999, 7.105427357601002e-15, -7.105427357601002e-15)"/>
  <path id="path374763" style="font-style:normal;font-weight:normal;font-size:72px;line-height:1;font-family:Stanley;font-variant-ligatures:none;text-align:center;text-anchor:middle" d="M 308.733 312.227 C 308.085 311.363 263.589 274.211 263.373 273.995 C 261.429 272.267 260.133 269.675 260.133 266.867 C 260.133 261.251 264.669 256.931 270.069 256.931 C 262.941 256.931 256.461 259.523 251.493 264.059 C 245.661 269.027 242.205 276.587 242.205 284.795 C 242.205 292.787 245.445 300.131 250.845 305.099 C 251.709 305.963 295.989 343.115 296.205 343.331 C 298.365 345.059 299.445 347.651 299.445 350.675 C 299.445 356.075 295.125 360.395 289.725 360.395 C 296.853 360.395 303.333 357.803 308.301 353.267 C 313.917 348.299 317.589 340.739 317.589 332.531 C 317.589 324.539 314.133 317.195 308.733 312.227 Z M 312.405 256.931 L 275.469 256.931 L 312.405 287.819 L 312.405 256.931 Z M 258.405 328.427 C 249.549 328.427 242.421 335.555 242.421 344.411 C 242.421 353.267 249.549 360.395 258.405 360.395 C 267.261 360.395 274.389 353.267 274.389 344.411 C 274.389 335.555 267.261 328.427 258.405 328.427 Z" stroke-width="0" stroke-linejoin="miter" stroke-miterlimit="2" fill="#6d6060" stroke="#6d6060" transform="matrix(1, 0, 0, 0.9999999999999999, 7.105427357601002e-15, -7.105427357601002e-15)"/>
  <path id="path374765" style="font-style:normal;font-weight:normal;font-size:72px;line-height:1;font-family:Stanley;font-variant-ligatures:none;text-align:center;text-anchor:middle" d="M 336.148 360.395 L 367.9 360.395 L 367.9 256.931 L 336.148 281.987 L 336.148 360.395 Z M 464.668 256.931 C 459.484 256.931 454.3 258.659 450.196 261.899 L 434.86 273.995 L 456.46 273.995 L 456.46 360.395 L 488.428 360.395 L 488.428 280.475 C 488.428 267.515 477.844 256.931 464.668 256.931 Z M 404.404 256.931 C 399.22 256.931 394.036 258.659 389.932 261.899 L 373.732 274.427 L 396.196 274.427 L 396.196 360.395 L 428.164 360.395 L 428.164 280.475 C 428.164 267.515 417.58 256.931 404.404 256.931 Z" stroke-width="0" stroke-linejoin="miter" stroke-miterlimit="2" fill="#6d6060" stroke="#6d6060" transform="matrix(1, 0, 0, 0.9999999999999999, 7.105427357601002e-15, -7.105427357601002e-15)"/>
</svg>