<?xml version="1.0" encoding="UTF-8" standalone="no"?>
<!-- Created with Inkscape (http://www.inkscape.org/) -->

<svg
   width="200mm"
   height="65mm"
   viewBox="0 0 200 65"
   version="1.1"
   id="svg1"
   xml:space="preserve"
   sodipodi:docname="logon.svg"
   inkscape:version="1.3.2 (091e20e, 2023-11-25, custom)"
   xmlns:inkscape="http://www.inkscape.org/namespaces/inkscape"
   xmlns:sodipodi="http://sodipodi.sourceforge.net/DTD/sodipodi-0.dtd"
   xmlns="http://www.w3.org/2000/svg"
   xmlns:svg="http://www.w3.org/2000/svg"><sodipodi:namedview
     id="namedview1"
     pagecolor="#ffffff"
     bordercolor="#111111"
     borderopacity="1"
     inkscape:showpageshadow="0"
     inkscape:pageopacity="0"
     inkscape:pagecheckerboard="1"
     inkscape:deskcolor="#d1d1d1"
     inkscape:document-units="mm"
     inkscape:zoom="0.97890839"
     inkscape:cx="439.2648"
     inkscape:cy="171.10896"
     inkscape:window-width="1920"
     inkscape:window-height="1009"
     inkscape:window-x="-8"
     inkscape:window-y="-8"
     inkscape:window-maximized="1"
     inkscape:current-layer="layer1"
     showguides="false" /><defs
     id="defs1" /><g
     inkscape:label="Layer 1"
     inkscape:groupmode="layer"
     id="layer1"><g
       id="g1"
       transform="matrix(0.3731262,0,0,0.37399552,-10.220661,-85.997699)"><path
         id="path374710"
         style="font-style:normal;font-weight:500;font-size:32px;line-height:1;font-family:Roboto;font-variant-ligatures:none;text-align:center;text-anchor:middle"
         d="m 105.297,398.411 h -2.965 l -7.605,-12.105 v 12.105 h -2.965 v -17.062 h 2.965 l 7.629,12.152 v -12.152 h 2.941 z"
         stroke-width="0"
         stroke-linejoin="miter"
         stroke-miterlimit="2"
         fill="#000000"
         stroke="#000000" /><path
         id="path374712"
         style="font-style:normal;font-weight:500;font-size:32px;line-height:1;font-family:Roboto;font-variant-ligatures:none;text-align:center;text-anchor:middle"
         d="m 112.704,398.411 h -2.954 v -17.062 h 2.954 z"
         stroke-width="0"
         stroke-linejoin="miter"
         stroke-miterlimit="2"
         fill="#000000"
         stroke="#000000" /><path
         id="path374714"
         style="font-style:normal;font-weight:500;font-size:32px;line-height:1;font-family:Roboto;font-variant-ligatures:none;text-align:center;text-anchor:middle"
         d="m 129.122,383.739 h -5.321 v 14.672 h -2.941 v -14.672 h -5.274 v -2.39 h 13.536 z"
         stroke-width="0"
         stroke-linejoin="miter"
         stroke-miterlimit="2"
         fill="#000000"
         stroke="#000000" /><path
         id="path374716"
         style="font-style:normal;font-weight:500;font-size:32px;line-height:1;font-family:Roboto;font-variant-ligatures:none;text-align:center;text-anchor:middle"
         d="m 142.317,391.04 -1.934,2.051 v 5.32 h -2.965 v -17.062 h 2.965 v 8.004 l 1.641,-2.028 4.992,-5.976 h 3.586 l -6.34,7.558 6.703,9.504 h -3.515 z"
         stroke-width="0"
         stroke-linejoin="miter"
         stroke-miterlimit="2"
         fill="#000000"
         stroke="#000000" /><path
         id="path374718"
         style="font-style:normal;font-weight:500;font-size:32px;line-height:1;font-family:Roboto;font-variant-ligatures:none;text-align:center;text-anchor:middle"
         d="m 158.207,391.04 -1.933,2.051 v 5.32 h -2.965 v -17.062 h 2.965 v 8.004 l 1.64,-2.028 4.993,-5.976 h 3.586 l -6.34,7.558 6.703,9.504 h -3.516 z"
         stroke-width="0"
         stroke-linejoin="miter"
         stroke-miterlimit="2"
         fill="#000000"
         stroke="#000000" /><path
         id="path374720"
         style="font-style:normal;font-weight:500;font-size:32px;line-height:1;font-family:Roboto;font-variant-ligatures:none;text-align:center;text-anchor:middle"
         d="m 175.469,391.837 h -3.305 v 6.574 H 169.2 v -17.062 h 6 c 1.968,0 3.488,0.441 4.558,1.324 1.071,0.883 1.606,2.16 1.606,3.832 0,1.141 -0.278,2.098 -0.832,2.871 -0.547,0.766 -1.313,1.355 -2.297,1.77 l 3.832,7.113 v 0.152 h -3.176 z m -3.305,-2.379 h 3.047 c 1,0 1.782,-0.25 2.344,-0.75 0.563,-0.508 0.844,-1.199 0.844,-2.074 0,-0.914 -0.262,-1.621 -0.785,-2.121 -0.516,-0.5 -1.289,-0.758 -2.321,-0.774 h -3.129 z"
         stroke-width="0"
         stroke-linejoin="miter"
         stroke-miterlimit="2"
         fill="#000000"
         stroke="#000000" /><path
         id="path374722"
         style="font-style:normal;font-weight:500;font-size:32px;line-height:1;font-family:Roboto;font-variant-ligatures:none;text-align:center;text-anchor:middle"
         d="m 199.868,394.017 c 0,-0.75 -0.266,-1.328 -0.797,-1.735 -0.524,-0.406 -1.473,-0.816 -2.848,-1.23 -1.375,-0.414 -2.469,-0.875 -3.281,-1.383 -1.555,-0.977 -2.332,-2.25 -2.332,-3.82 0,-1.375 0.558,-2.508 1.676,-3.399 1.125,-0.89 2.582,-1.336 4.371,-1.336 1.187,0 2.246,0.219 3.175,0.657 0.93,0.437 1.661,1.062 2.192,1.875 0.531,0.804 0.797,1.699 0.797,2.683 h -2.953 c 0,-0.89 -0.282,-1.586 -0.844,-2.086 -0.555,-0.508 -1.352,-0.762 -2.391,-0.762 -0.969,0 -1.722,0.208 -2.261,0.622 -0.532,0.414 -0.797,0.992 -0.797,1.734 0,0.625 0.289,1.148 0.867,1.57 0.578,0.414 1.531,0.821 2.859,1.219 1.328,0.391 2.395,0.84 3.199,1.348 0.805,0.5 1.395,1.078 1.77,1.734 0.375,0.648 0.562,1.41 0.562,2.285 0,1.422 -0.546,2.555 -1.64,3.399 -1.086,0.836 -2.563,1.254 -4.43,1.254 -1.234,0 -2.371,-0.227 -3.41,-0.68 -1.031,-0.461 -1.836,-1.094 -2.414,-1.899 -0.57,-0.804 -0.856,-1.742 -0.856,-2.812 h 2.965 c 0,0.969 0.321,1.719 0.961,2.25 0.641,0.531 1.559,0.797 2.754,0.797 1.031,0 1.805,-0.207 2.32,-0.621 0.524,-0.422 0.786,-0.977 0.786,-1.664 z"
         stroke-width="0"
         stroke-linejoin="miter"
         stroke-miterlimit="2"
         fill="#000000"
         stroke="#000000" /><path
         id="path374724"
         style="font-style:normal;font-weight:500;font-size:32px;line-height:1;font-family:Roboto;font-variant-ligatures:none;text-align:center;text-anchor:middle"
         d="m 209.477,382.649 v 3.082 h 2.238 v 2.11 h -2.238 v 7.078 c 0,0.484 0.094,0.836 0.281,1.055 0.196,0.211 0.539,0.316 1.031,0.316 0.329,0 0.661,-0.039 0.997,-0.117 v 2.203 c -0.649,0.18 -1.274,0.27 -1.875,0.27 -2.188,0 -3.282,-1.207 -3.282,-3.622 v -7.183 h -2.086 v -2.11 h 2.086 v -3.082 z"
         stroke-width="0"
         stroke-linejoin="miter"
         stroke-miterlimit="2"
         fill="#000000"
         stroke="#000000" /><path
         id="path374726"
         style="font-style:normal;font-weight:500;font-size:32px;line-height:1;font-family:Roboto;font-variant-ligatures:none;text-align:center;text-anchor:middle"
         d="m 222.309,397.169 c -0.836,0.984 -2.023,1.477 -3.562,1.477 -1.375,0 -2.418,-0.403 -3.129,-1.207 -0.704,-0.805 -1.055,-1.969 -1.055,-3.493 v -8.215 h 2.848 v 8.18 c 0,1.61 0.668,2.414 2.003,2.414 1.383,0 2.317,-0.496 2.801,-1.488 v -9.106 h 2.848 v 12.68 h -2.684 z"
         stroke-width="0"
         stroke-linejoin="miter"
         stroke-miterlimit="2"
         fill="#000000"
         stroke="#000000" /><path
         id="path374728"
         style="font-style:normal;font-weight:500;font-size:32px;line-height:1;font-family:Roboto;font-variant-ligatures:none;text-align:center;text-anchor:middle"
         d="m 228.204,391.978 c 0,-1.954 0.453,-3.52 1.359,-4.7 0.906,-1.187 2.121,-1.781 3.644,-1.781 1.344,0 2.43,0.469 3.258,1.406 v -6.492 h 2.848 v 18 h -2.578 l -0.141,-1.312 c -0.851,1.031 -1.988,1.547 -3.41,1.547 -1.484,0 -2.687,-0.598 -3.609,-1.793 -0.914,-1.196 -1.371,-2.821 -1.371,-4.875 z m 2.847,0.246 c 0,1.289 0.246,2.297 0.739,3.023 0.5,0.719 1.207,1.078 2.121,1.078 1.164,0 2.015,-0.519 2.554,-1.558 v -5.414 c -0.523,-1.016 -1.367,-1.524 -2.531,-1.524 -0.922,0 -1.633,0.367 -2.133,1.102 -0.5,0.726 -0.75,1.824 -0.75,3.293 z"
         stroke-width="0"
         stroke-linejoin="miter"
         stroke-miterlimit="2"
         fill="#000000"
         stroke="#000000" /><path
         id="path374730"
         style="font-style:normal;font-weight:500;font-size:32px;line-height:1;font-family:Roboto;font-variant-ligatures:none;text-align:center;text-anchor:middle"
         d="m 248.618,398.646 c -1.805,0 -3.27,-0.567 -4.395,-1.7 -1.117,-1.14 -1.676,-2.656 -1.676,-4.547 v -0.351 c 0,-1.266 0.243,-2.395 0.727,-3.387 0.492,-1 1.18,-1.777 2.062,-2.332 0.883,-0.555 1.868,-0.832 2.954,-0.832 1.726,0 3.058,0.551 3.996,1.652 0.945,1.102 1.418,2.661 1.418,4.676 v 1.149 h -8.286 c 0.086,1.047 0.434,1.875 1.043,2.484 0.618,0.609 1.391,0.914 2.321,0.914 1.304,0 2.367,-0.527 3.187,-1.582 l 1.535,1.465 c -0.507,0.758 -1.187,1.348 -2.039,1.769 -0.843,0.415 -1.793,0.622 -2.847,0.622 z m -0.34,-10.864 c -0.781,0 -1.414,0.274 -1.899,0.821 -0.476,0.546 -0.781,1.308 -0.914,2.285 h 5.426 v -0.211 c -0.062,-0.953 -0.316,-1.672 -0.762,-2.156 -0.445,-0.493 -1.062,-0.739 -1.851,-0.739 z"
         stroke-width="0"
         stroke-linejoin="miter"
         stroke-miterlimit="2"
         fill="#000000"
         stroke="#000000" /><path
         id="path374732"
         style="font-style:normal;font-weight:500;font-size:32px;line-height:1;font-family:Roboto;font-variant-ligatures:none;text-align:center;text-anchor:middle"
         d="m 259.317,385.731 0.082,1.465 c 0.937,-1.132 2.168,-1.699 3.691,-1.699 2.641,0 3.985,1.512 4.031,4.535 v 8.379 h -2.847 v -8.215 c 0,-0.804 -0.176,-1.398 -0.528,-1.781 -0.343,-0.391 -0.91,-0.586 -1.699,-0.586 -1.148,0 -2.004,0.52 -2.566,1.559 v 9.023 h -2.848 v -12.68 z"
         stroke-width="0"
         stroke-linejoin="miter"
         stroke-miterlimit="2"
         fill="#000000"
         stroke="#000000" /><path
         id="path374734"
         style="font-style:normal;font-weight:500;font-size:32px;line-height:1;font-family:Roboto;font-variant-ligatures:none;text-align:center;text-anchor:middle"
         d="m 274.352,382.649 v 3.082 h 2.238 v 2.11 h -2.238 v 7.078 c 0,0.484 0.094,0.836 0.281,1.055 0.196,0.211 0.539,0.316 1.031,0.316 0.329,0 0.661,-0.039 0.997,-0.117 v 2.203 c -0.649,0.18 -1.274,0.27 -1.875,0.27 -2.188,0 -3.282,-1.207 -3.282,-3.622 v -7.183 h -2.086 v -2.11 h 2.086 v -3.082 z"
         stroke-width="0"
         stroke-linejoin="miter"
         stroke-miterlimit="2"
         fill="#000000"
         stroke="#000000" /><path
         id="path374736"
         style="font-style:normal;font-weight:500;font-size:32px;line-height:1;font-family:Roboto;font-variant-ligatures:none;text-align:center;text-anchor:middle"
         d="m 289.622,381.349 4.921,13.078 4.911,-13.078 h 3.832 v 17.062 h -2.954 v -5.625 l 0.293,-7.523 -5.039,13.148 h -2.121 l -5.027,-13.137 0.293,7.512 v 5.625 h -2.953 v -17.062 z"
         stroke-width="0"
         stroke-linejoin="miter"
         stroke-miterlimit="2"
         fill="#000000"
         stroke="#000000" /><path
         id="path374738"
         style="font-style:normal;font-weight:500;font-size:32px;line-height:1;font-family:Roboto;font-variant-ligatures:none;text-align:center;text-anchor:middle"
         d="m 314.829,398.411 c -0.125,-0.242 -0.235,-0.637 -0.329,-1.183 -0.906,0.945 -2.015,1.418 -3.328,1.418 -1.273,0 -2.312,-0.364 -3.117,-1.09 -0.805,-0.727 -1.207,-1.625 -1.207,-2.696 0,-1.351 0.5,-2.386 1.5,-3.105 1.008,-0.727 2.445,-1.09 4.313,-1.09 h 1.746 v -0.832 c 0,-0.656 -0.184,-1.18 -0.551,-1.57 -0.367,-0.399 -0.926,-0.598 -1.676,-0.598 -0.648,0 -1.18,0.164 -1.594,0.492 -0.414,0.321 -0.621,0.731 -0.621,1.231 h -2.847 c 0,-0.696 0.23,-1.344 0.691,-1.946 0.461,-0.609 1.086,-1.086 1.875,-1.429 0.797,-0.344 1.684,-0.516 2.66,-0.516 1.485,0 2.668,0.375 3.551,1.125 0.883,0.742 1.336,1.789 1.359,3.141 v 5.718 c 0,1.141 0.16,2.051 0.481,2.731 v 0.199 z M 311.7,396.36 c 0.562,0 1.089,-0.136 1.582,-0.41 0.5,-0.273 0.875,-0.64 1.125,-1.101 v -2.391 h -1.535 c -1.055,0 -1.848,0.184 -2.379,0.551 -0.532,0.367 -0.797,0.887 -0.797,1.558 0,0.547 0.179,0.985 0.539,1.313 0.367,0.32 0.855,0.48 1.465,0.48 z"
         stroke-width="0"
         stroke-linejoin="miter"
         stroke-miterlimit="2"
         fill="#000000"
         stroke="#000000" /><path
         id="path374740"
         style="font-style:normal;font-weight:500;font-size:32px;line-height:1;font-family:Roboto;font-variant-ligatures:none;text-align:center;text-anchor:middle"
         d="m 327.625,388.333 c -0.375,-0.062 -0.761,-0.094 -1.16,-0.094 -1.304,0 -2.183,0.5 -2.636,1.5 v 8.672 h -2.848 v -12.68 h 2.719 l 0.07,1.418 c 0.687,-1.101 1.641,-1.652 2.859,-1.652 0.407,0 0.742,0.055 1.008,0.164 z"
         stroke-width="0"
         stroke-linejoin="miter"
         stroke-miterlimit="2"
         fill="#000000"
         stroke="#000000" /><path
         id="path374742"
         style="font-style:normal;font-weight:500;font-size:32px;line-height:1;font-family:Roboto;font-variant-ligatures:none;text-align:center;text-anchor:middle"
         d="m 334.293,392.974 -1.265,1.3 v 4.137 h -2.848 v -18 h 2.848 v 10.383 l 0.89,-1.113 3.504,-3.95 h 3.422 l -4.711,5.286 5.215,7.394 h -3.293 z"
         stroke-width="0"
         stroke-linejoin="miter"
         stroke-miterlimit="2"
         fill="#000000"
         stroke="#000000" /><path
         id="path374744"
         style="font-style:normal;font-weight:500;font-size:32px;line-height:1;font-family:Roboto;font-variant-ligatures:none;text-align:center;text-anchor:middle"
         d="m 348.789,398.646 c -1.804,0 -3.269,-0.567 -4.394,-1.7 -1.117,-1.14 -1.676,-2.656 -1.676,-4.547 v -0.351 c 0,-1.266 0.242,-2.395 0.727,-3.387 0.492,-1 1.179,-1.777 2.062,-2.332 0.883,-0.555 1.867,-0.832 2.953,-0.832 1.727,0 3.059,0.551 3.996,1.652 0.946,1.102 1.418,2.661 1.418,4.676 v 1.149 h -8.285 c 0.086,1.047 0.434,1.875 1.043,2.484 0.617,0.609 1.391,0.914 2.321,0.914 1.304,0 2.367,-0.527 3.187,-1.582 l 1.535,1.465 c -0.508,0.758 -1.187,1.348 -2.039,1.769 -0.844,0.415 -1.793,0.622 -2.848,0.622 z m -0.339,-10.864 c -0.782,0 -1.414,0.274 -1.899,0.821 -0.476,0.546 -0.781,1.308 -0.914,2.285 h 5.426 v -0.211 c -0.063,-0.953 -0.316,-1.672 -0.762,-2.156 -0.445,-0.493 -1.062,-0.739 -1.851,-0.739 z"
         stroke-width="0"
         stroke-linejoin="miter"
         stroke-miterlimit="2"
         fill="#000000"
         stroke="#000000" /><path
         id="path374746"
         style="font-style:normal;font-weight:500;font-size:32px;line-height:1;font-family:Roboto;font-variant-ligatures:none;text-align:center;text-anchor:middle"
         d="m 360.414,382.649 v 3.082 h 2.239 v 2.11 h -2.239 v 7.078 c 0,0.484 0.094,0.836 0.282,1.055 0.195,0.211 0.539,0.316 1.031,0.316 0.328,0 0.66,-0.039 0.996,-0.117 v 2.203 c -0.648,0.18 -1.273,0.27 -1.875,0.27 -2.187,0 -3.281,-1.207 -3.281,-3.622 v -7.183 h -2.086 v -2.11 h 2.086 v -3.082 z"
         stroke-width="0"
         stroke-linejoin="miter"
         stroke-miterlimit="2"
         fill="#000000"
         stroke="#000000" /><path
         id="path374748"
         style="font-style:normal;font-weight:500;font-size:32px;line-height:1;font-family:Roboto;font-variant-ligatures:none;text-align:center;text-anchor:middle"
         d="m 376.668,392.2 c 0,1.961 -0.445,3.528 -1.336,4.699 -0.89,1.165 -2.085,1.747 -3.585,1.747 -1.391,0 -2.504,-0.457 -3.34,-1.372 v 6.012 h -2.848 v -17.555 h 2.625 l 0.117,1.29 c 0.836,-1.016 1.973,-1.524 3.41,-1.524 1.547,0 2.758,0.578 3.633,1.734 0.883,1.149 1.324,2.747 1.324,4.793 z m -2.836,-0.246 c 0,-1.265 -0.253,-2.269 -0.761,-3.012 -0.5,-0.742 -1.219,-1.113 -2.157,-1.113 -1.164,0 -2,0.481 -2.507,1.442 v 5.625 c 0.515,0.984 1.359,1.476 2.531,1.476 0.906,0 1.613,-0.363 2.121,-1.09 0.516,-0.734 0.773,-1.843 0.773,-3.328 z"
         stroke-width="0"
         stroke-linejoin="miter"
         stroke-miterlimit="2"
         fill="#000000"
         stroke="#000000" /><path
         id="path374750"
         style="font-style:normal;font-weight:500;font-size:32px;line-height:1;font-family:Roboto;font-variant-ligatures:none;text-align:center;text-anchor:middle"
         d="m 382.844,398.411 h -2.847 v -18 h 2.847 z"
         stroke-width="0"
         stroke-linejoin="miter"
         stroke-miterlimit="2"
         fill="#000000"
         stroke="#000000" /><path
         id="path374752"
         style="font-style:normal;font-weight:500;font-size:32px;line-height:1;font-family:Roboto;font-variant-ligatures:none;text-align:center;text-anchor:middle"
         d="m 394.282,398.411 c -0.125,-0.242 -0.235,-0.637 -0.328,-1.183 -0.907,0.945 -2.016,1.418 -3.329,1.418 -1.273,0 -2.312,-0.364 -3.117,-1.09 -0.804,-0.727 -1.207,-1.625 -1.207,-2.696 0,-1.351 0.5,-2.386 1.5,-3.105 1.008,-0.727 2.446,-1.09 4.313,-1.09 h 1.746 v -0.832 c 0,-0.656 -0.184,-1.18 -0.551,-1.57 -0.367,-0.399 -0.926,-0.598 -1.676,-0.598 -0.648,0 -1.179,0.164 -1.594,0.492 -0.414,0.321 -0.621,0.731 -0.621,1.231 h -2.847 c 0,-0.696 0.23,-1.344 0.691,-1.946 0.461,-0.609 1.086,-1.086 1.875,-1.429 0.797,-0.344 1.684,-0.516 2.66,-0.516 1.485,0 2.668,0.375 3.551,1.125 0.883,0.742 1.336,1.789 1.359,3.141 v 5.718 c 0,1.141 0.161,2.051 0.481,2.731 v 0.199 z m -3.129,-2.051 c 0.562,0 1.09,-0.136 1.582,-0.41 0.5,-0.273 0.875,-0.64 1.125,-1.101 v -2.391 h -1.535 c -1.055,0 -1.848,0.184 -2.379,0.551 -0.532,0.367 -0.797,0.887 -0.797,1.558 0,0.547 0.18,0.985 0.539,1.313 0.367,0.32 0.855,0.48 1.465,0.48 z"
         stroke-width="0"
         stroke-linejoin="miter"
         stroke-miterlimit="2"
         fill="#000000"
         stroke="#000000" /><path
         id="path374754"
         style="font-style:normal;font-weight:500;font-size:32px;line-height:1;font-family:Roboto;font-variant-ligatures:none;text-align:center;text-anchor:middle"
         d="m 405.649,396.372 c 0.711,0 1.301,-0.207 1.769,-0.621 0.469,-0.414 0.719,-0.926 0.75,-1.535 h 2.684 c -0.031,0.789 -0.277,1.527 -0.738,2.215 -0.461,0.679 -1.086,1.218 -1.875,1.617 -0.789,0.398 -1.641,0.598 -2.555,0.598 -1.773,0 -3.18,-0.575 -4.219,-1.723 -1.039,-1.149 -1.558,-2.734 -1.558,-4.758 v -0.293 c 0,-1.93 0.515,-3.473 1.547,-4.629 1.031,-1.164 2.437,-1.746 4.218,-1.746 1.508,0 2.735,0.442 3.68,1.324 0.953,0.875 1.453,2.028 1.5,3.457 h -2.684 c -0.031,-0.726 -0.281,-1.324 -0.75,-1.793 -0.461,-0.468 -1.05,-0.703 -1.769,-0.703 -0.922,0 -1.633,0.336 -2.133,1.008 -0.5,0.664 -0.754,1.676 -0.762,3.035 v 0.457 c 0,1.375 0.246,2.403 0.739,3.082 0.5,0.672 1.218,1.008 2.156,1.008 z"
         stroke-width="0"
         stroke-linejoin="miter"
         stroke-miterlimit="2"
         fill="#000000"
         stroke="#000000" /><path
         id="path374756"
         style="font-style:normal;font-weight:500;font-size:32px;line-height:1;font-family:Roboto;font-variant-ligatures:none;text-align:center;text-anchor:middle"
         d="m 419.336,398.646 c -1.804,0 -3.269,-0.567 -4.394,-1.7 -1.117,-1.14 -1.676,-2.656 -1.676,-4.547 v -0.351 c 0,-1.266 0.242,-2.395 0.727,-3.387 0.492,-1 1.179,-1.777 2.062,-2.332 0.883,-0.555 1.867,-0.832 2.953,-0.832 1.727,0 3.059,0.551 3.996,1.652 0.946,1.102 1.418,2.661 1.418,4.676 v 1.149 h -8.285 c 0.086,1.047 0.434,1.875 1.043,2.484 0.617,0.609 1.391,0.914 2.32,0.914 1.305,0 2.368,-0.527 3.188,-1.582 l 1.535,1.465 c -0.508,0.758 -1.187,1.348 -2.039,1.769 -0.844,0.415 -1.793,0.622 -2.848,0.622 z m -0.339,-10.864 c -0.782,0 -1.415,0.274 -1.899,0.821 -0.476,0.546 -0.781,1.308 -0.914,2.285 h 5.426 v -0.211 c -0.063,-0.953 -0.317,-1.672 -0.762,-2.156 -0.445,-0.493 -1.062,-0.739 -1.851,-0.739 z"
         stroke-width="0"
         stroke-linejoin="miter"
         stroke-miterlimit="2"
         fill="#000000"
         stroke="#000000" /><path
         id="path374759"
         style="font-style:normal;font-weight:normal;font-size:72px;line-height:1;font-family:Stanley;font-variant-ligatures:none;text-align:center;text-anchor:middle"
         d="M 27.757,360.611 H 59.509 V 230.363 L 27.757,255.635 Z M 96.013,230.363 c -5.184,0 -10.368,1.944 -14.472,5.184 l -16.2,12.528 22.464,-0.216 v 112.752 h 31.968 V 254.123 c 0,-13.176 -10.584,-23.76 -23.76,-23.76 z"
         stroke-width="0"
         stroke-linejoin="miter"
         stroke-miterlimit="2"
         fill="#000000"
         stroke="#000000" /><path
         id="path374761"
         style="font-style:normal;font-weight:normal;font-size:72px;line-height:1;font-family:Stanley;font-variant-ligatures:none;text-align:center;text-anchor:middle"
         d="m 138.423,255.635 v 104.76 h 31.752 V 230.579 Z m 56.592,1.296 v 30.672 l 36.936,-30.672 z m 0,40.392 -24.84,20.52 26.568,42.552 h 37.8 z"
         stroke-width="0"
         stroke-linejoin="miter"
         stroke-miterlimit="2"
         fill="#000000"
         stroke="#000000" /><path
         id="path374763"
         style="font-style:normal;font-weight:normal;font-size:72px;line-height:1;font-family:Stanley;font-variant-ligatures:none;text-align:center;text-anchor:middle"
         d="m 308.733,312.227 c -0.648,-0.864 -45.144,-38.016 -45.36,-38.232 -1.944,-1.728 -3.24,-4.32 -3.24,-7.128 0,-5.616 4.536,-9.936 9.936,-9.936 -7.128,0 -13.608,2.592 -18.576,7.128 -5.832,4.968 -9.288,12.528 -9.288,20.736 0,7.992 3.24,15.336 8.64,20.304 0.864,0.864 45.144,38.016 45.36,38.232 2.16,1.728 3.24,4.32 3.24,7.344 0,5.4 -4.32,9.72 -9.72,9.72 7.128,0 13.608,-2.592 18.576,-7.128 5.616,-4.968 9.288,-12.528 9.288,-20.736 0,-7.992 -3.456,-15.336 -8.856,-20.304 z m 3.672,-55.296 h -36.936 l 36.936,30.888 z m -54,71.496 c -8.856,0 -15.984,7.128 -15.984,15.984 0,8.856 7.128,15.984 15.984,15.984 8.856,0 15.984,-7.128 15.984,-15.984 0,-8.856 -7.128,-15.984 -15.984,-15.984 z"
         stroke-width="0"
         stroke-linejoin="miter"
         stroke-miterlimit="2"
         fill="#000000"
         stroke="#000000" /><path
         id="path374765"
         style="font-style:normal;font-weight:normal;font-size:72px;line-height:1;font-family:Stanley;font-variant-ligatures:none;text-align:center;text-anchor:middle"
         d="M 336.148,360.395 H 367.9 V 256.931 l -31.752,25.056 z m 128.52,-103.464 c -5.184,0 -10.368,1.728 -14.472,4.968 l -15.336,12.096 h 21.6 v 86.4 h 31.968 v -79.92 c 0,-12.96 -10.584,-23.544 -23.76,-23.544 z m -60.264,0 c -5.184,0 -10.368,1.728 -14.472,4.968 l -16.2,12.528 h 22.464 v 85.968 h 31.968 v -79.92 c 0,-12.96 -10.584,-23.544 -23.76,-23.544 z"
         stroke-width="0"
         stroke-linejoin="miter"
         stroke-miterlimit="2"
         fill="#000000"
         stroke="#000000" /></g><text
       xml:space="preserve"
       style="font-size:12.2755px;font-family:Calibri;-inkscape-font-specification:Calibri;fill:#000000;stroke-width:0.328808"
       x="176.75255"
       y="8.0062857"
       id="text1"
       transform="scale(0.98829962,1.0118389)"><tspan
         sodipodi:role="line"
         id="tspan1"
         style="font-style:normal;font-variant:normal;font-weight:bold;font-stretch:normal;font-family:Calibri;-inkscape-font-specification:'Calibri Bold';stroke-width:0.328808"
         x="176.75255"
         y="8.0062857">BETA</tspan></text></g></svg>
